<svg width="20" height="20" viewBox="0 0 33 33" fill="none" xmlns="http://www.w3.org/2000/svg">
<path d="M13 6.5H19.5C19.5 5.63805 19.1576 4.8114 18.5481 4.2019C17.9386 3.59241 17.112 3.25 16.25 3.25C15.388 3.25 14.5614 3.59241 13.9519 4.2019C13.3424 4.8114 13 5.63805 13 6.5ZM9.75 6.5C9.75 4.77609 10.4348 3.12279 11.6538 1.90381C12.8728 0.68482 14.5261 0 16.25 0C17.9739 0 19.6272 0.68482 20.8462 1.90381C22.0652 3.12279 22.75 4.77609 22.75 6.5H30.875C31.306 6.5 31.7193 6.67121 32.024 6.97595C32.3288 7.2807 32.5 7.69402 32.5 8.125C32.5 8.55598 32.3288 8.9693 32.024 9.27405C31.7193 9.57879 31.306 9.75 30.875 9.75H29.4418L28.002 26.5525C27.8636 28.175 27.1212 29.6865 25.9218 30.7878C24.7223 31.8892 23.1531 32.5002 21.5248 32.5H10.9752C9.34685 32.5002 7.7777 31.8892 6.57824 30.7878C5.37879 29.6865 4.63641 28.175 4.498 26.5525L3.05825 9.75H1.625C1.19402 9.75 0.780698 9.57879 0.475951 9.27405C0.171205 8.9693 0 8.55598 0 8.125C0 7.69402 0.171205 7.2807 0.475951 6.97595C0.780698 6.67121 1.19402 6.5 1.625 6.5H9.75ZM21.125 16.25C21.125 15.819 20.9538 15.4057 20.649 15.101C20.3443 14.7962 19.931 14.625 19.5 14.625C19.069 14.625 18.6557 14.7962 18.351 15.101C18.0462 15.4057 17.875 15.819 17.875 16.25V22.75C17.875 23.181 18.0462 23.5943 18.351 23.899C18.6557 24.2038 19.069 24.375 19.5 24.375C19.931 24.375 20.3443 24.2038 20.649 23.899C20.9538 23.5943 21.125 23.181 21.125 22.75V16.25ZM13 14.625C13.431 14.625 13.8443 14.7962 14.149 15.101C14.4538 15.4057 14.625 15.819 14.625 16.25V22.75C14.625 23.181 14.4538 23.5943 14.149 23.899C13.8443 24.2038 13.431 24.375 13 24.375C12.569 24.375 12.1557 24.2038 11.851 23.899C11.5462 23.5943 11.375 23.181 11.375 22.75V16.25C11.375 15.819 11.5462 15.4057 11.851 15.101C12.1557 14.7962 12.569 14.625 13 14.625ZM7.735 26.2763C7.80423 27.0878 8.17565 27.8437 8.77572 28.3945C9.37579 28.9452 10.1608 29.2505 10.9752 29.25H21.5248C22.3387 29.2497 23.1228 28.944 23.7222 28.3934C24.3216 27.8427 24.6926 27.0872 24.7618 26.2763L26.1788 9.75H6.32125L7.735 26.2763Z" fill="black"/>
</svg>
